# AST/ASF file generated using VICON BodyLanguage
# -----------------------------------------------
:version 1.10
:name VICON
:units
  mass 1.0
  length 0.45
  angle deg
:documentation
   .ast/.asf automatically generated from VICON data using
   VICON BodyBuilder and BodyLanguage model FoxedUp or BRILLIANT.MOD
:root
   order TX TY TZ RX RY RZ
   axis XYZ
   position 0 0 0  
   orientation 0 0 0 
:bonedata
  begin
     id 1 
     name lhipjoint
     direction 0.561001 -0.76473 0.316963 
     length 2.4722 
     axis 0 0 0  XYZ
  end
  begin
     id 2 
     name lfemur
     direction 0.34202 -0.939693 0  
     length 7.59403  
     axis 0 0 20  XYZ
    dof rx ry rz
    limits (-160.0 20.0)
           (-70.0 70.0)
           (-60.0 70.0)
  end
  begin
     id 3 
     name ltibia
     direction 0.34202 -0.939693 0   
     length 7.89655   
     axis 0 0 20   XYZ
    dof rx
    limits (-10.0 170.0)
  end
  begin
     id 4 
     name lfoot
     direction 0.061296 -0.168409 0.98381   
     length 2.73287   
     axis -90 7.62852e-016 20   XYZ
    dof rx rz
    limits (-45.0 90.0)
           (-70.0 20.0)
  end
  begin
     id 5 
     name ltoes
     direction 1.53547e-011 -4.21984e-011 1   
     length 1.37057   
     axis -90 7.62852e-016 20   XYZ
    dof rx
    limits (-90.0 20.0)
  end
  begin
     id 6 
     name rhipjoint
     direction -0.559611 -0.765599 0.317323   
     length 2.46939  
     axis 0 0 0  XYZ 
  end
  begin
     id 7 
     name rfemur
     direction -0.34202 -0.939693 0   
     length 7.53712   
     axis 0 0 -20   XYZ
    dof rx ry rz
    limits (-160.0 20.0)
           (-70.0 70.0)
           (-70.0 60.0)
  end
  begin
     id 8 
     name rtibia
     direction -0.34202 -0.939693 0   
     length 8.12549   
     axis 0 0 -20   XYZ
    dof rx
    limits (-10.0 170.0)
 end
 begin
     id 9 
     name rfoot
     direction -0.066984 -0.184037 0.980634   
     length 2.67541  
     axis -90 -7.62852e-016 -20   XYZ
    dof rx rz
    limits (-45.0 90.0)
           (-20.0 70.0)
  end
  begin
     id 10 
     name rtoes
     direction -1.53549e-011 -4.21786e-011 1   
     length 1.34085   
     axis -90 -7.62852e-016 -20   XYZ
    dof rx
    limits (-90.0 20.0)
  end
  begin
     id 11 
     name lowerback
     direction -0.0522728 0.992594 -0.109658   
     length 2.05633   
     axis 0 0 0   XYZ
    dof rx ry rz
    limits (-20.0 45.0)
           (-30.0 30.0)
           (-30.0 30.0)
  end
  begin
     id 12 
     name upperback
     direction 0.00589338 0.999977 0.00335704   
     length 2.05845   
     axis 0 0 0   XYZ
    dof rx ry rz
    limits (-20.0 45.0)
           (-30.0 30.0)
           (-30.0 30.0)
  end
  begin
     id 13 
     name thorax
     direction 0.0292928 0.998059 0.0549487   
     length 2.09281   
     axis 0 0 0   XYZ
    dof rx ry rz
    limits (-20.0 45.0)
           (-30.0 30.0)
           (-30.0 30.0)
  end
  begin
     id 14 
     name lowerneck
     direction 0.0356368 0.980775 0.191858   
     length 1.84767   
     axis 0 0 0   XYZ
    dof rx ry rz
    limits (-20.0 45.0)
           (-30.0 30.0)
           (-30.0 30.0)
  end
  begin
     id 15 
     name upperneck
     direction -0.0227605 0.98931 -0.14404   
     length 1.89582   
     axis 0 0 0   XYZ
    dof rx ry rz
    limits (-20.0 45.0)
           (-30.0 30.0)
           (-30.0 30.0)
  end
  begin
     id 16
     name head
     direction -0.00932985 0.997511 -0.0698904  
     length 1.90213  
     axis 0 0 0   XYZ
    dof rx ry rz
    limits (-20.0 45.0)
           (-30.0 30.0)
           (-30.0 30.0)
  end
  begin
     id 17 
     name lclavicle
     direction 0.873442 0.479511 0.0846686  
     length 3.41193  
     axis 0 0 0   XYZ
    dof ry rz
    limits (-20.0 10.0)
           (0.0 20.0)
  end
  begin
     id 18 
     name lhumerus
     direction 1 -4.4897e-011 -5.62117e-018   
     length 5.59864   
     axis 180 -30 -90   XYZ
    dof rx ry rz
    limits (-60.0 90.0)
           (-90.0 90.0)
           (-90.0 90.0)
  end
  begin
     id 19
     name lradius
     direction 1 -4.48966e-011 -6.26295e-027   
     length 3.59542   
     axis 180 -30 -90   XYZ
    dof rx
    limits (-10.0 170.0)
  end
  begin
     id 20
     name lwrist
     direction 1 -4.48947e-011 -1.74096e-026   
     length 1.79771   
     axis 1.04567e-014 90 90   XYZ
    dof ry
    limits (-180.0 0.0)
 end
  begin
     id 21 
     name lhand
     direction 1 -4.49085e-011 -3.48469e-026   
     length 0.572014   
     axis 2.22196e-014 90 90   XYZ
    dof rx rz
    limits (-90.0 90.0)
           (-45.0 45.0)
  end
  begin
     id 22 
     name lfingers
     direction 1 -4.48884e-011 -6.96135e-026   
     length 0.461173   
     axis 4.44383e-014 90 90   XYZ
    dof rx
    limits (0.0 90.0)
  end
  begin
     id 23
     name lthumb
     direction 0.707107 -6.34976e-011 0.707107   
     length 0.662154   
     axis -90 45 -5.4397e-014   XYZ
    dof rx rz
    limits (-45.0 45.0)
           (-45.0 45.0)
  end
  begin
     id 24 
     name rclavicle
     direction -0.890242 0.443271 0.104786   
     length 3.46753  
     axis 0 0 0   XYZ 
    dof ry rz
    limits (-10.0 20.0)
           (-20.0 0.0)
  end
  begin
     id 25 
     name rhumerus
     direction -1 -4.48963e-011 -5.41723e-018  
     length 5.8094   
     axis 180 30 90   XYZ
    dof rx ry rz
    limits (-90.0 60.0)
           (-90.0 90.0)
           (-90.0 90.0)
  end
  begin
     id 26 
     name rradius
     direction -1 -4.48958e-011 -6.51059e-027   
     length 3.66953   
     axis 180 30 90   XYZ
    dof rx
    limits (-10.0 170.0)
  end
  begin
     id 27 
     name rwrist
     direction -1 -4.48975e-011 -1.74124e-026   
     length 1.83476   
     axis 1.04567e-014 -90 -90   XYZ
    dof ry
    limits (-180.0 0.0)
  end
  begin
     id 28
     name rhand
     direction -1 -4.49013e-011 -3.48326e-026   
     length 0.57843   
     axis 2.22196e-014 -90 -90   XYZ
    dof rx rz
    limits (-90.0 90.0)
           (-45.0 45.0)
  end
  begin
     id 29
     name rfingers
     direction -1 -4.49023e-011 -6.9669e-026   
     length 0.466345   
     axis 4.44383e-014 -90 -90   XYZ
    dof rx
    limits (0.0 90.0)
  end
  begin
     id 30
     name rthumb
     direction -0.707107 -6.34926e-011 0.707107   
     length 0.669581   
     axis -90 -45 5.4397e-014   XYZ
    dof rx rz
    limits (-45.0 45.0)
           (-45.0 45.0)
  end
:hierarchy
  begin
    root lhipjoint rhipjoint lowerback
    lhipjoint lfemur
    lfemur ltibia
    ltibia lfoot
    lfoot ltoes
    rhipjoint rfemur
    rfemur rtibia
    rtibia rfoot
    rfoot rtoes
    lowerback upperback
    upperback thorax
    thorax lowerneck lclavicle rclavicle
    lowerneck upperneck
    upperneck head
    lclavicle lhumerus
    lhumerus lradius
    lradius lwrist
    lwrist lhand lthumb
    lhand lfingers
    rclavicle rhumerus
    rhumerus rradius
    rradius rwrist
    rwrist rhand rthumb
    rhand rfingers
  end

#!OML:ASF H:\SkateBoarding\Project 1\Capture day 1\Session 1\Skater.ASF
:FULLY-SPECIFIED
:DEGREES
32
root 21.5453 19.5705 -11.1004 -21.5533 79.6314 -30.3377
lowerback 11.066 -1.84831 -4.97831
upperback -0.158524 -3.08019 0.0528871
thorax -6.11477 -1.34831 3.34953
lowerneck -12.5072 -3.97036 2.11647
upperneck 44.0035 -6.21551 3.06481
head 18.9419 -1.11692 0.128816
rclavicle -1.23246e-014 9.54166e-015
rhumerus -36.0583 16.3921 -86.7412
rradius 50.3751
rwrist -11.0042
rhand -34.8309 5.13924
rfingers 7.12502
rthumb -7.98155 -24.6901
lclavicle -1.23246e-014 9.54166e-015
lhumerus -19.2339 -13.2708 81.386
lradius 42.2809
lwrist 26.0317
lhand -23.7467 7.62659
lfingers 7.12502
lthumb 2.72195 37.589
rfemur -23.1588 2.95041 22.0227
rtibia 32.8102
rfoot -25.0154 4.299
rtoes -0.569332
lfemur -22.4242 -15.1777 -3.65012
ltibia 36.5769
lfoot -40.4781 13.9396
ltoes -24.324
33
root 21.5154 19.5634 -10.8106 -20.8777 79.1236 -29.6464
lowerback 11.0227 -1.77482 -4.91384
upperback -0.205199 -2.97268 0.082485
thorax -6.15136 -1.29574 3.32761
lowerneck -12.427 -3.92794 2.16639
upperneck 44.0895 -6.12642 2.99087
head 18.966 -1.0806 0.103931
rclavicle 1.88845e-014 3.18055e-015
rhumerus -35.5465 16.2189 -86.6389
rradius 50.2543
rwrist -11.2094
rhand -35.1222 4.93121
rfingers 7.12502
rthumb -8.26267 -24.8872
lclavicle 1.88845e-014 3.18055e-015
lhumerus -19.1546 -12.7726 81.0409
lradius 41.7365
lwrist 25.8126
lhand -23.6632 7.58669
lfingers 7.12502
lthumb 2.80258 37.548
rfemur -23.0471 2.88771 22.106
rtibia 32.5013
rfoot -24.7174 4.54083
rtoes -0.533359
lfemur -22.3413 -15.0054 -3.63754
ltibia 36.659
lfoot -40.8239 14.0103
ltoes -24.3579
34
root 21.485 19.5569 -10.5213 -20.2381 78.6126 -28.9851
lowerback 10.9884 -1.70611 -4.86666
upperback -0.245928 -2.87362 0.116167
thorax -6.18472 -1.24688 3.3212
lowerneck -12.3648 -3.8764 2.20567
upperneck 44.1705 -6.02329 2.91946
head 18.9926 -1.04057 0.0841118
rclavicle 3.20043e-014 1.43125e-014
rhumerus -35.0281 16.0641 -86.5544
rradius 50.1333
rwrist -11.4197
rhand -35.4352 4.70694
rfingers 7.12502
rthumb -8.56474 -25.0994
lclavicle 3.20043e-014 1.43125e-014
lhumerus -19.0526 -12.2316 80.6946
lradius 41.1776
lwrist 25.6093
lhand -23.6642 7.57955
lfingers 7.12502
lthumb 2.8017 37.5409
rfemur -22.9544 2.8366 22.1952
rtibia 32.2346
rfoot -24.4226 4.72323
rtoes -0.565431
lfemur -22.2611 -14.8433 -3.625
ltibia 36.7494
lfoot -41.1388 14.0949
ltoes -24.3799
35
root 21.4542 19.552 -10.2322 -19.619 78.1007 -28.3413
lowerback 10.9612 -1.64152 -4.84027
upperback -0.282095 -2.78267 0.152332
thorax -6.21542 -1.20141 3.3305
lowerneck -12.3173 -3.81834 2.22551
upperneck 44.2476 -5.91026 2.85857
head 19.0227 -0.998825 0.0741653
rclavicle -5.96354e-016 -3.18055e-015
rhumerus -34.5044 15.9266 -86.4847
rradius 50.0051
rwrist -11.6127
rhand -35.7465 4.48693
rfingers 7.12502
rthumb -8.8652 -25.3068
lclavicle -5.96354e-016 -3.18055e-015
lhumerus -18.9293 -11.6515 80.3476
lradius 40.6015
lwrist 25.4204
lhand -23.7388 7.60771
lfingers 7.12502
lthumb 2.72957 37.57
rfemur -22.889 2.78759 22.2829
rtibia 32.0161
rfoot -24.117 4.85865
rtoes -0.649033
lfemur -22.1878 -14.6957 -3.61224
ltibia 36.8462
lfoot -41.4186 14.1939
ltoes -24.3664
36
root 21.4227 19.5486 -9.94323 -19.0238 77.5921 -27.7186
lowerback 10.9418 -1.58236 -4.83884
upperback -0.313072 -2.70199 0.192492
thorax -6.24281 -1.16025 3.3598
lowerneck -12.284 -3.75336 2.22775
upperneck 44.3217 -5.78541 2.80397
head 19.056 -0.954892 0.0721246
rclavicle -4.67144e-014 1.11319e-014
rhumerus -33.9743 15.8067 -86.4261
rradius 49.865
rwrist -11.7636
rhand -36.0256 4.31289
rfingers 7.12502
rthumb -9.13455 -25.4693
lclavicle -4.67144e-014 1.11319e-014
lhumerus -18.7846 -11.0243 80.0009
lradius 40.0018
lwrist 25.2278
lhand -23.8762 7.66106
lfingers 7.12502
lthumb 2.59692 37.625
rfemur -22.8553 2.7442 22.3716
rtibia 31.8505
rfoot -23.8065 4.93032
rtoes -0.774067
lfemur -22.122 -14.5632 -3.59907
ltibia 36.9477
lfoot -41.6646 14.3044
ltoes -24.3313
37
root 21.3904 19.5467 -9.65448 -18.5151 77.0909 -27.1829
lowerback 10.9321 -1.53034 -4.8481
upperback -0.343089 -2.63211 0.240556
thorax -6.27293 -1.12382 3.40548
lowerneck -12.255 -3.68461 2.21375
upperneck 44.3935 -5.65146 2.75243
head 19.0901 -0.910033 0.0759512
rclavicle -2.18663e-015 6.36111e-015
rhumerus -33.4471 15.6932 -86.3739
rradius 49.7106
rwrist -11.8565
rhand -36.268 4.17333
rfingers 7.12502
rthumb -9.36835 -25.5985
lclavicle -2.18663e-015 6.36111e-015
lhumerus -18.6299 -10.3537 79.6624
lradius 39.3821
lwrist 25.0287
lhand -24.0627 7.73996
lfingers 7.12502
lthumb 2.41682 37.706
rfemur -22.8517 2.71455 22.4708
rtibia 31.7375
rfoot -23.4982 4.96503
rtoes -0.89017
lfemur -22.0704 -14.4574 -3.56775
ltibia 37.0538
lfoot -41.8628 14.4303
ltoes -24.2778
